<?xml version="1.0" encoding="utf-8"?>
<svg version="1.1" id="Layer_1" xmlns="http://www.w3.org/2000/svg" xmlns:xlink="http://www.w3.org/1999/xlink" x="0px" y="0px"
	 viewBox="0 0 64 64" style="enable-background:new 0 0 64 64;" xml:space="preserve">
<style type="text/css">
	.st0{fill:#A7D26D;}
	.st1{fill:#0C130B;}
	
	/* Hide original logo initially */
	.original-logo {
		opacity: 0;
		animation: logo-reveal 0.5s ease-out 4s forwards;
	}
	
	/* Circuit track animation - using EXACT paths from your SVG */
	.circuit-track {
		fill: none;
		stroke: #A7D26D;
		stroke-width: 1.5;
		stroke-dasharray: 500;
		stroke-dashoffset: 500;
		opacity: 0;
		animation: circuit-power-on 1.2s ease-out forwards;
	}
	
	/* Progressive activation using your exact layer order */
	.track-circuit4 { animation-delay: 0.2s; }
	.track-circuit3 { animation-delay: 0.5s; }
	.track-circuit2 { animation-delay: 0.8s; }
	.track-circuit { animation-delay: 1.1s; }
	.track-frame { animation-delay: 1.4s; }
	
	/* Electric flow particles */
	.electric-particle {
		fill: #ffffff;
		opacity: 0;
		animation: electric-flow 2.5s ease-in-out infinite;
	}
	
	.particle-1 { animation-delay: 1.8s; }
	.particle-2 { animation-delay: 2.0s; }
	.particle-3 { animation-delay: 2.2s; }
	.particle-4 { animation-delay: 2.4s; }
	.particle-5 { animation-delay: 2.6s; }
	
	/* Neon glow effect */
	.circuit-glow {
		fill: none;
		stroke: #A7D26D;
		stroke-width: 3;
		opacity: 0;
		filter: blur(2px);
		animation: neon-pulse 3s ease-in-out 2s infinite;
	}
	
	/* Idle breathing state */
	.idle-state {
		fill: none;
		stroke: #A7D26D;
		stroke-width: 1;
		opacity: 0;
		animation: system-breathing 4s ease-in-out 4.5s infinite;
	}
	
	/* KEYFRAME ANIMATIONS */
	@keyframes circuit-power-on {
		0% {
			opacity: 0;
			stroke-dashoffset: 500;
		}
		100% {
			opacity: 0.9;
			stroke-dashoffset: 0;
		}
	}
	
	@keyframes electric-flow {
		0% {
			opacity: 0;
			transform: scale(0.2);
		}
		30% {
			opacity: 1;
			transform: scale(1);
		}
		70% {
			opacity: 1;
			transform: scale(1);
		}
		100% {
			opacity: 0;
			transform: scale(0.2);
		}
	}
	
	@keyframes neon-pulse {
		0%, 100% {
			opacity: 0.2;
		}
		50% {
			opacity: 0.5;
		}
	}
	
	@keyframes system-breathing {
		0%, 100% {
			opacity: 0.4;
		}
		50% {
			opacity: 0.8;
		}
	}
	
	@keyframes logo-reveal {
		from { opacity: 0; }
		to { opacity: 1; }
	}
</style>

<!-- Original logo (revealed after circuit animation) -->
<g class="original-logo">
	<path id="Circuit4" class="st0" d="M39.1,11.9c-0.2-0.4-0.9-0.2-1.4-0.2h-23c-1.1,0.1-2.1-0.4-2.7-1.2c-1.2-1.4-3.3-1.8-4.9-0.8
		c-1.6,0.8-2.6,2.6-2.4,4.5c0.5,1.8,2,3.1,3.8,3.4c1.4,0.2,2.7-0.3,3.7-1.3c0.5-0.5,1.1-0.7,1.8-0.7h17.6l0.5,0.1
		c-10,14.5-20.5,28.4-30.6,43c0.5,1.6,1.3,2.6,2.3,3.3c-0.1-0.2,0-0.5,0.4-1L14,47.2l24.4-33.9C38.7,12.8,39.3,12.4,39.1,11.9z"/>
	<path id="Circuit3" class="st0" d="M11.6,24.2c-1.5-1-3.5-0.9-4.9,0.3c-1.4,1-1.9,2.9-1.3,4.5c0.3,0.7,0.2,1.5-0.2,2.1l-3.7,5.1v5.4
		l6.3-8.5c0.5-0.7,1.3-1.1,2.1-1.2c1.8-0.3,3.2-1.7,3.5-3.5C13.8,26.8,13,25.1,11.6,24.2z"/>
	<path id="Circuit2" class="st0" d="M63.1,27.8v-6.2c0,0.1-0.1,0.2-0.2,0.3c-2.2,3-4.4,6-6.6,9.1c-0.5,0.7-1.3,1.1-2.1,1.2
		c-2.3,0.4-3.8,2.5-3.4,4.8c0.1,0.7,0.4,1.4,0.9,1.9c1.1,1.3,2.9,1.8,4.5,1.3c1.6-0.5,2.7-1.8,2.9-3.4c0.1-0.4,0-0.8-0.1-1.2
		c-0.5-0.8-0.3-1.9,0.3-2.6C60.5,31.3,61.8,29.5,63.1,27.8z"/>
	<path id="Circuit" class="st0" d="M60.2,2.9c-2.7,3.6-5.3,7.3-7.9,11l-15.2,21L24.9,51.8c-0.2,0.2-0.5,0.4-0.4,0.7
		c0.1,0.1,0.2,0.2,0.3,0.2c0.2,0,0.3,0,0.5,0c7.8-0.3,15.6,0.2,23.5,0c0.3,0,0.6,0,0.9,0c0.9,0.1,1.8,0.5,2.5,1.1
		c0.7,0.6,1.5,0.9,2.4,1c1.4,0.1,2.9-0.4,3.9-1.6c0.1-0.1,0.2-0.2,0.3-0.4c1.1-1.8,0.7-4.2-1-5.5c-0.6-0.5-1.3-0.8-2.1-0.9
		c-1.2-0.1-2.5,0.3-3.4,1.2c-0.8,0.9-2,1.4-3.2,1.3H31.8l0,0c0,0,0,0,0,0L62.8,5.4C62,3.8,61,2.7,60.4,2.2
		C60.5,2.4,60.4,2.6,60.2,2.9z"/>
	<path id="frame_black_part" class="st1" d="M31.8,49c6,0,11.7,0,17.3,0c1.2,0.1,2.4-0.4,3.2-1.3c0.9-1,2.2-1.4,3.4-1.2
		c0.7,0.1,1.5,0.4,2.1,0.9c1.7,1.3,2.1,3.7,1,5.5c-0.1,0.1-0.2,0.3-0.3,0.4c-1,1.2-2.5,1.7-3.9,1.6c-0.9-0.1-1.7-0.4-2.4-1
		c-0.7-0.6-1.6-1-2.5-1.1c-0.3,0-0.6,0-0.9,0c-7.8,0.2-15.6-0.3-23.5,0c-0.1,0-0.3,0-0.5,0c-0.2,0-0.3,0-0.4-0.2
		c-0.1-0.3,0.2-0.5,0.4-0.7l12.2-16.9l15.2-21c2.6-3.7,5.3-7.3,7.9-11c0.2-0.3,0.3-0.6,0.2-0.8c-0.3-0.3-0.5-0.5-0.5-0.5
		c-1.1-0.6-2.4-0.9-3.7-0.8h-48H7c-3.3,0.3-5.9,3-5.9,6.3c0,9.4,0,18.8,0,28.2c0,0.3,0.1,0.6,0.2,0.9l3.8-5.3
		c0.4-0.6,0.5-1.4,0.2-2.1c-0.6-1.6-0.1-3.4,1.3-4.5c1.4-1.1,3.4-1.2,4.9-0.3c1.5,0.9,2.2,2.5,1.9,4.2c-0.3,1.8-1.7,3.2-3.5,3.5
		c-0.8,0.1-1.6,0.5-2.1,1.2l-6.3,8.5c-0.2,0.3-0.4,0.7-0.3,1.1c0,4.3,0,8.7,0,13.1c0,1,0.1,1.9,0.4,2.6c10.1-14.5,20.6-28.5,30.6-43
		l-0.5-0.1H14c-0.7,0-1.3,0.3-1.8,0.7c-1,1-2.3,1.5-3.7,1.3c-1.8-0.2-3.3-1.6-3.8-3.4c-0.2-1.8,0.7-3.6,2.4-4.5
		c1.6-0.9,3.7-0.6,4.9,0.8c0.6,0.8,1.7,1.3,2.7,1.2h23c0.5,0,1.2-0.3,1.4,0.2c0.2,0.4-0.4,0.9-0.7,1.3L14,47.2L4.2,60.8
		c-0.4,0.5-0.5,0.8-0.4,1C5.3,62.8,7,63,7.7,63c0.1,0,0.3,0,0.4,0h48.3c0.1,0,0.2,0,0.2,0c3.6,0,6.5-2.9,6.5-6.5c0-9.3,0-18.7,0-28
		c0-0.2,0.1-0.6-0.2-0.7c-1.3,1.8-2.5,3.5-3.8,5.3c-0.6,0.7-0.8,1.8-0.3,2.6c0.2,0.4,0.2,0.8,0.1,1.2c-0.2,1.6-1.3,2.9-2.9,3.4
		c-1.6,0.5-3.4,0-4.5-1.3c-0.5-0.6-0.8-1.2-0.9-1.9c-0.4-2.3,1.1-4.4,3.4-4.8c0.8-0.1,1.6-0.5,2.1-1.2c2.2-3,4.4-6.1,6.6-9.1
		c0.2-0.3,0.4-0.7,0.4-1.1c0-4.5,0-9,0-13.4c0-0.6-0.1-1.1-0.3-1.7c0-0.1-0.1-0.1-0.1-0.2L31.8,49z"/>
</g>

<!-- CIRCUIT TRACKS - Using EXACT paths from your SVG layers -->
<!-- Circuit4 track -->
<path class="circuit-track track-circuit4" d="M39.1,11.9c-0.2-0.4-0.9-0.2-1.4-0.2h-23c-1.1,0.1-2.1-0.4-2.7-1.2c-1.2-1.4-3.3-1.8-4.9-0.8
	c-1.6,0.8-2.6,2.6-2.4,4.5c0.5,1.8,2,3.1,3.8,3.4c1.4,0.2,2.7-0.3,3.7-1.3c0.5-0.5,1.1-0.7,1.8-0.7h17.6l0.5,0.1
	c-10,14.5-20.5,28.4-30.6,43c0.5,1.6,1.3,2.6,2.3,3.3c-0.1-0.2,0-0.5,0.4-1L14,47.2l24.4-33.9C38.7,12.8,39.3,12.4,39.1,11.9z"/>

<!-- Circuit3 track -->
<path class="circuit-track track-circuit3" d="M11.6,24.2c-1.5-1-3.5-0.9-4.9,0.3c-1.4,1-1.9,2.9-1.3,4.5c0.3,0.7,0.2,1.5-0.2,2.1l-3.7,5.1v5.4
	l6.3-8.5c0.5-0.7,1.3-1.1,2.1-1.2c1.8-0.3,3.2-1.7,3.5-3.5C13.8,26.8,13,25.1,11.6,24.2z"/>

<!-- Circuit2 track -->
<path class="circuit-track track-circuit2" d="M63.1,27.8v-6.2c0,0.1-0.1,0.2-0.2,0.3c-2.2,3-4.4,6-6.6,9.1c-0.5,0.7-1.3,1.1-2.1,1.2
	c-2.3,0.4-3.8,2.5-3.4,4.8c0.1,0.7,0.4,1.4,0.9,1.9c1.1,1.3,2.9,1.8,4.5,1.3c1.6-0.5,2.7-1.8,2.9-3.4c0.1-0.4,0-0.8-0.1-1.2
	c-0.5-0.8-0.3-1.9,0.3-2.6C60.5,31.3,61.8,29.5,63.1,27.8z"/>

<!-- Circuit track (main) -->
<path class="circuit-track track-circuit" d="M60.2,2.9c-2.7,3.6-5.3,7.3-7.9,11l-15.2,21L24.9,51.8c-0.2,0.2-0.5,0.4-0.4,0.7
	c0.1,0.1,0.2,0.2,0.3,0.2c0.2,0,0.3,0,0.5,0c7.8-0.3,15.6,0.2,23.5,0c0.3,0,0.6,0,0.9,0c0.9,0.1,1.8,0.5,2.5,1.1
	c0.7,0.6,1.5,0.9,2.4,1c1.4,0.1,2.9-0.4,3.9-1.6c0.1-0.1,0.2-0.2,0.3-0.4c1.1-1.8,0.7-4.2-1-5.5c-0.6-0.5-1.3-0.8-2.1-0.9
	c-1.2-0.1-2.5,0.3-3.4,1.2c-0.8,0.9-2,1.4-3.2,1.3H31.8l0,0c0,0,0,0,0,0L62.8,5.4C62,3.8,61,2.7,60.4,2.2
	C60.5,2.4,60.4,2.6,60.2,2.9z"/>

<!-- Frame track -->
<path class="circuit-track track-frame" d="M31.8,49c6,0,11.7,0,17.3,0c1.2,0.1,2.4-0.4,3.2-1.3c0.9-1,2.2-1.4,3.4-1.2
	c0.7,0.1,1.5,0.4,2.1,0.9c1.7,1.3,2.1,3.7,1,5.5c-0.1,0.1-0.2,0.3-0.3,0.4c-1,1.2-2.5,1.7-3.9,1.6c-0.9-0.1-1.7-0.4-2.4-1
	c-0.7-0.6-1.6-1-2.5-1.1c-0.3,0-0.6,0-0.9,0c-7.8,0.2-15.6-0.3-23.5,0c-0.1,0-0.3,0-0.5,0c-0.2,0-0.3,0-0.4-0.2
	c-0.1-0.3,0.2-0.5,0.4-0.7l12.2-16.9l15.2-21c2.6-3.7,5.3-7.3,7.9-11c0.2-0.3,0.3-0.6,0.2-0.8c-0.3-0.3-0.5-0.5-0.5-0.5
	c-1.1-0.6-2.4-0.9-3.7-0.8h-48H7c-3.3,0.3-5.9,3-5.9,6.3c0,9.4,0,18.8,0,28.2c0,0.3,0.1,0.6,0.2,0.9l3.8-5.3
	c0.4-0.6,0.5-1.4,0.2-2.1c-0.6-1.6-0.1-3.4,1.3-4.5c1.4-1.1,3.4-1.2,4.9-0.3c1.5,0.9,2.2,2.5,1.9,4.2c-0.3,1.8-1.7,3.2-3.5,3.5
	c-0.8,0.1-1.6,0.5-2.1,1.2l-6.3,8.5c-0.2,0.3-0.4,0.7-0.3,1.1c0,4.3,0,8.7,0,13.1c0,1,0.1,1.9,0.4,2.6c10.1-14.5,20.6-28.5,30.6-43
	l-0.5-0.1H14c-0.7,0-1.3,0.3-1.8,0.7c-1,1-2.3,1.5-3.7,1.3c-1.8-0.2-3.3-1.6-3.8-3.4c-0.2-1.8,0.7-3.6,2.4-4.5
	c1.6-0.9,3.7-0.6,4.9,0.8c0.6,0.8,1.7,1.3,2.7,1.2h23c0.5,0,1.2-0.3,1.4,0.2c0.2,0.4-0.4,0.9-0.7,1.3L14,47.2L4.2,60.8
	c-0.4,0.5-0.5,0.8-0.4,1C5.3,62.8,7,63,7.7,63c0.1,0,0.3,0,0.4,0h48.3c0.1,0,0.2,0,0.2,0c3.6,0,6.5-2.9,6.5-6.5c0-9.3,0-18.7,0-28
	c0-0.2,0.1-0.6-0.2-0.7c-1.3,1.8-2.5,3.5-3.8,5.3c-0.6,0.7-0.8,1.8-0.3,2.6c0.2,0.4,0.2,0.8,0.1,1.2c-0.2,1.6-1.3,2.9-2.9,3.4
	c-1.6,0.5-3.4,0-4.5-1.3c-0.5-0.6-0.8-1.2-0.9-1.9c-0.4-2.3,1.1-4.4,3.4-4.8c0.8-0.1,1.6-0.5,2.1-1.2c2.2-3,4.4-6.1,6.6-9.1
	c0.2-0.3,0.4-0.7,0.4-1.1c0-4.5,0-9,0-13.4c0-0.6-0.1-1.1-0.3-1.7c0-0.1-0.1-0.1-0.1-0.2L31.8,49z"/>

<!-- NEON GLOW - Main circuit paths only -->
<path class="circuit-glow" d="M39.1,11.9c-0.2-0.4-0.9-0.2-1.4-0.2h-23c-1.1,0.1-2.1-0.4-2.7-1.2c-1.2-1.4-3.3-1.8-4.9-0.8
	c-1.6,0.8-2.6,2.6-2.4,4.5c0.5,1.8,2,3.1,3.8,3.4c1.4,0.2,2.7-0.3,3.7-1.3c0.5-0.5,1.1-0.7,1.8-0.7h17.6l0.5,0.1
	c-10,14.5-20.5,28.4-30.6,43c0.5,1.6,1.3,2.6,2.3,3.3c-0.1-0.2,0-0.5,0.4-1L14,47.2l24.4-33.9C38.7,12.8,39.3,12.4,39.1,11.9z"/>

<path class="circuit-glow" d="M60.2,2.9c-2.7,3.6-5.3,7.3-7.9,11l-15.2,21L24.9,51.8c-0.2,0.2-0.5,0.4-0.4,0.7
	c0.1,0.1,0.2,0.2,0.3,0.2c0.2,0,0.3,0,0.5,0c7.8-0.3,15.6,0.2,23.5,0c0.3,0,0.6,0,0.9,0c0.9,0.1,1.8,0.5,2.5,1.1
	c0.7,0.6,1.5,0.9,2.4,1c1.4,0.1,2.9-0.4,3.9-1.6c0.1-0.1,0.2-0.2,0.3-0.4c1.1-1.8,0.7-4.2-1-5.5c-0.6-0.5-1.3-0.8-2.1-0.9
	c-1.2-0.1-2.5,0.3-3.4,1.2c-0.8,0.9-2,1.4-3.2,1.3H31.8l0,0c0,0,0,0,0,0L62.8,5.4C62,3.8,61,2.7,60.4,2.2
	C60.5,2.4,60.4,2.6,60.2,2.9z"/>

<!-- ELECTRIC PARTICLES flowing along tracks -->
<circle class="electric-particle particle-1" cx="25" cy="30" r="1">
	<animateMotion dur="3s" repeatCount="indefinite" begin="1.8s">
		<mpath href="#track-circuit4"/>
	</animateMotion>
</circle>

<circle class="electric-particle particle-2" cx="45" cy="15" r="1.2">
	<animateMotion dur="4s" repeatCount="indefinite" begin="2.0s">
		<mpath href="#track-circuit"/>
	</animateMotion>
</circle>

<circle class="electric-particle particle-3" cx="10" cy="28" r="0.8">
	<animateMotion dur="2s" repeatCount="indefinite" begin="2.2s">
		<mpath href="#track-circuit3"/>
	</animateMotion>
</circle>

<circle class="electric-particle particle-4" cx="58" cy="32" r="1">
	<animateMotion dur="2.5s" repeatCount="indefinite" begin="2.4s">
		<mpath href="#track-circuit2"/>
	</animateMotion>
</circle>

<circle class="electric-particle particle-5" cx="35" cy="40" r="1.1">
	<animateMotion dur="3.5s" repeatCount="indefinite" begin="2.6s">
		<mpath href="#track-frame"/>
	</animateMotion>
</circle>

<!-- Hidden path definitions for particle motion -->
<defs>
	<path id="track-circuit4" d="M39.1,11.9c-0.2-0.4-0.9-0.2-1.4-0.2h-23c-1.1,0.1-2.1-0.4-2.7-1.2c-1.2-1.4-3.3-1.8-4.9-0.8
		c-1.6,0.8-2.6,2.6-2.4,4.5c0.5,1.8,2,3.1,3.8,3.4c1.4,0.2,2.7-0.3,3.7-1.3c0.5-0.5,1.1-0.7,1.8-0.7h17.6l0.5,0.1
		c-10,14.5-20.5,28.4-30.6,43c0.5,1.6,1.3,2.6,2.3,3.3c-0.1-0.2,0-0.5,0.4-1L14,47.2l24.4-33.9C38.7,12.8,39.3,12.4,39.1,11.9z"/>
	<path id="track-circuit3" d="M11.6,24.2c-1.5-1-3.5-0.9-4.9,0.3c-1.4,1-1.9,2.9-1.3,4.5c0.3,0.7,0.2,1.5-0.2,2.1l-3.7,5.1v5.4
		l6.3-8.5c0.5-0.7,1.3-1.1,2.1-1.2c1.8-0.3,3.2-1.7,3.5-3.5C13.8,26.8,13,25.1,11.6,24.2z"/>
	<path id="track-circuit2" d="M63.1,27.8v-6.2c0,0.1-0.1,0.2-0.2,0.3c-2.2,3-4.4,6-6.6,9.1c-0.5,0.7-1.3,1.1-2.1,1.2
		c-2.3,0.4-3.8,2.5-3.4,4.8c0.1,0.7,0.4,1.4,0.9,1.9c1.1,1.3,2.9,1.8,4.5,1.3c1.6-0.5,2.7-1.8,2.9-3.4c0.1-0.4,0-0.8-0.1-1.2
		c-0.5-0.8-0.3-1.9,0.3-2.6C60.5,31.3,61.8,29.5,63.1,27.8z"/>
	<path id="track-circuit" d="M60.2,2.9c-2.7,3.6-5.3,7.3-7.9,11l-15.2,21L24.9,51.8c-0.2,0.2-0.5,0.4-0.4,0.7
		c0.1,0.1,0.2,0.2,0.3,0.2c0.2,0,0.3,0,0.5,0c7.8-0.3,15.6,0.2,23.5,0c0.3,0,0.6,0,0.9,0c0.9,0.1,1.8,0.5,2.5,1.1
		c0.7,0.6,1.5,0.9,2.4,1c1.4,0.1,2.9-0.4,3.9-1.6c0.1-0.1,0.2-0.2,0.3-0.4c1.1-1.8,0.7-4.2-1-5.5c-0.6-0.5-1.3-0.8-2.1-0.9
		c-1.2-0.1-2.5,0.3-3.4,1.2c-0.8,0.9-2,1.4-3.2,1.3H31.8l0,0c0,0,0,0,0,0L62.8,5.4C62,3.8,61,2.7,60.4,2.2
		C60.5,2.4,60.4,2.6,60.2,2.9z"/>
	<path id="track-frame" d="M31.8,49c6,0,11.7,0,17.3,0c1.2,0.1,2.4-0.4,3.2-1.3c0.9-1,2.2-1.4,3.4-1.2
		c0.7,0.1,1.5,0.4,2.1,0.9c1.7,1.3,2.1,3.7,1,5.5c-0.1,0.1-0.2,0.3-0.3,0.4c-1,1.2-2.5,1.7-3.9,1.6c-0.9-0.1-1.7-0.4-2.4-1
		c-0.7-0.6-1.6-1-2.5-1.1c-0.3,0-0.6,0-0.9,0c-7.8,0.2-15.6-0.3-23.5,0c-0.1,0-0.3,0-0.5,0c-0.2,0-0.3,0-0.4-0.2
		c-0.1-0.3,0.2-0.5,0.4-0.7l12.2-16.9l15.2-21c2.6-3.7,5.3-7.3,7.9-11c0.2-0.3,0.3-0.6,0.2-0.8c-0.3-0.3-0.5-0.5-0.5-0.5
		c-1.1-0.6-2.4-0.9-3.7-0.8h-48H7c-3.3,0.3-5.9,3-5.9,6.3c0,9.4,0,18.8,0,28.2c0,0.3,0.1,0.6,0.2,0.9l3.8-5.3
		c0.4-0.6,0.5-1.4,0.2-2.1c-0.6-1.6-0.1-3.4,1.3-4.5c1.4-1.1,3.4-1.2,4.9-0.3c1.5,0.9,2.2,2.5,1.9,4.2c-0.3,1.8-1.7,3.2-3.5,3.5
		c-0.8,0.1-1.6,0.5-2.1,1.2l-6.3,8.5c-0.2,0.3-0.4,0.7-0.3,1.1c0,4.3,0,8.7,0,13.1c0,1,0.1,1.9,0.4,2.6c10.1-14.5,20.6-28.5,30.6-43
		l-0.5-0.1H14c-0.7,0-1.3,0.3-1.8,0.7c-1,1-2.3,1.5-3.7,1.3c-1.8-0.2-3.3-1.6-3.8-3.4c-0.2-1.8,0.7-3.6,2.4-4.5
		c1.6-0.9,3.7-0.6,4.9,0.8c0.6,0.8,1.7,1.3,2.7,1.2h23c0.5,0,1.2-0.3,1.4,0.2c0.2,0.4-0.4,0.9-0.7,1.3L14,47.2L4.2,60.8
		c-0.4,0.5-0.5,0.8-0.4,1C5.3,62.8,7,63,7.7,63c0.1,0,0.3,0,0.4,0h48.3c0.1,0,0.2,0,0.2,0c3.6,0,6.5-2.9,6.5-6.5c0-9.3,0-18.7,0-28
		c0-0.2,0.1-0.6-0.2-0.7c-1.3,1.8-2.5,3.5-3.8,5.3c-0.6,0.7-0.8,1.8-0.3,2.6c0.2,0.4,0.2,0.8,0.1,1.2c-0.2,1.6-1.3,2.9-2.9,3.4
		c-1.6,0.5-3.4,0-4.5-1.3c-0.5-0.6-0.8-1.2-0.9-1.9c-0.4-2.3,1.1-4.4,3.4-4.8c0.8-0.1,1.6-0.5,2.1-1.2c2.2-3,4.4-6.1,6.6-9.1
		c0.2-0.3,0.4-0.7,0.4-1.1c0-4.5,0-9,0-13.4c0-0.6-0.1-1.1-0.3-1.7c0-0.1-0.1-0.1-0.1-0.2L31.8,49z"/>
</defs>

<!-- IDLE STATE - All tracks breathing -->
<path class="idle-state" d="M39.1,11.9c-0.2-0.4-0.9-0.2-1.4-0.2h-23c-1.1,0.1-2.1-0.4-2.7-1.2c-1.2-1.4-3.3-1.8-4.9-0.8
	c-1.6,0.8-2.6,2.6-2.4,4.5c0.5,1.8,2,3.1,3.8,3.4c1.4,0.2,2.7-0.3,3.7-1.3c0.5-0.5,1.1-0.7,1.8-0.7h17.6l0.5,0.1
	c-10,14.5-20.5,28.4-30.6,43c0.5,1.6,1.3,2.6,2.3,3.3c-0.1-0.2,0-0.5,0.4-1L14,47.2l24.4-33.9C38.7,12.8,39.3,12.4,39.1,11.9z"/>
<path class="idle-state" d="M11.6,24.2c-1.5-1-3.5-0.9-4.9,0.3c-1.4,1-1.9,2.9-1.3,4.5c0.3,0.7,0.2,1.5-0.2,2.1l-3.7,5.1v5.4
	l6.3-8.5c0.5-0.7,1.3-1.1,2.1-1.2c1.8-0.3,3.2-1.7,3.5-3.5C13.8,26.8,13,25.1,11.6,24.2z"/>
<path class="idle-state" d="M63.1,27.8v-6.2c0,0.1-0.1,0.2-0.2,0.3c-2.2,3-4.4,6-6.6,9.1c-0.5,0.7-1.3,1.1-2.1,1.2
	c-2.3,0.4-3.8,2.5-3.4,4.8c0.1,0.7,0.4,1.4,0.9,1.9c1.1,1.3,2.9,1.8,4.5,1.3c1.6-0.5,2.7-1.8,2.9-3.4c0.1-0.4,0-0.8-0.1-1.2
	c-0.5-0.8-0.3-1.9,0.3-2.6C60.5,31.3,61.8,29.5,63.1,27.8z"/>
<path class="idle-state" d="M60.2,2.9c-2.7,3.6-5.3,7.3-7.9,11l-15.2,21L24.9,51.8c-0.2,0.2-0.5,0.4-0.4,0.7
	c0.1,0.1,0.2,0.2,0.3,0.2c0.2,0,0.3,0,0.5,0c7.8-0.3,15.6,0.2,23.5,0c0.3,0,0.6,0,0.9,0c0.9,0.1,1.8,0.5,2.5,1.1
	c0.7,0.6,1.5,0.9,2.4,1c1.4,0.1,2.9-0.4,3.9-1.6c0.1-0.1,0.2-0.2,0.3-0.4c1.1-1.8,0.7-4.2-1-5.5c-0.6-0.5-1.3-0.8-2.1-0.9
	c-1.2-0.1-2.5,0.3-3.4,1.2c-0.8,0.9-2,1.4-3.2,1.3H31.8l0,0c0,0,0,0,0,0L62.8,5.4C62,3.8,61,2.7,60.4,2.2
	C60.5,2.4,60.4,2.6,60.2,2.9z"/>

</svg>