<svg id="Layer_1" data-name="Layer 1" xmlns="http://www.w3.org/2000/svg" viewBox="0 0 44.73 43.69"><defs><style>.cls-1{fill:#a7d16d;}</style></defs><path class="cls-1" d="M22.61,12.64c-5.68,8.28-11.68,16.25-17.4,24.5a1.67,1.67,0,0,1-.19-.8c0-2.73,0-5.46,0-8.19a1,1,0,0,1,.19-.64l3.58-4.83A1.81,1.81,0,0,1,10,22a2.42,2.42,0,0,0,2-2,2.29,2.29,0,0,0-1.08-2.39,2.37,2.37,0,0,0-2.76.16,2.24,2.24,0,0,0-.75,2.55,1.22,1.22,0,0,1-.11,1.2l-2.15,3A.78.78,0,0,1,5,24Q5,15.94,5,7.88A3.69,3.69,0,0,1,8.37,4.29c.22,0,.45,0,.68,0H36.28a4.41,4.41,0,0,1,2.08.48c.37.18.42.35.17.7C37,7.52,35.53,9.61,34,11.7l-8.61,12-6.91,9.65c-.09.13-.29.24-.23.39s.32.1.47.09c4.44-.14,8.88.09,13.32,0a2.66,2.66,0,0,1,1.88.65,2.54,2.54,0,0,0,3.74-.54,2.37,2.37,0,0,0-.55-3.12A2.32,2.32,0,0,0,34,31a2.24,2.24,0,0,1-1.82.72c-3.24,0-6.48,0-9.87,0L40.05,6.85A2.35,2.35,0,0,1,40.27,8c0,2.56,0,5.11,0,7.67a1.06,1.06,0,0,1-.2.64q-1.87,2.58-3.72,5.18a1.86,1.86,0,0,1-1.21.68A2.37,2.37,0,0,0,33.7,26a2.42,2.42,0,0,0,2.58.75,2.33,2.33,0,0,0,1.63-1.95,1.2,1.2,0,0,0-.08-.67A1.29,1.29,0,0,1,38,22.63c.72-1,1.44-2,2.16-3,.19.07.11.25.11.39,0,5.34,0,10.68,0,16a3.71,3.71,0,0,1-3.83,3.72H9A4.05,4.05,0,0,1,7,39.36c-.62-.32-.64-.35-.24-.9l5.56-7.76L26.18,11.35c.17-.24.49-.51.37-.76s-.51-.09-.78-.09H12.71a1.82,1.82,0,0,1-1.55-.71,2.18,2.18,0,0,0-2.77-.47,2.5,2.5,0,0,0-1.34,2.54A2.58,2.58,0,0,0,9.2,13.78,2.55,2.55,0,0,0,11.31,13a1.41,1.41,0,0,1,1-.42h10Z"/></svg>